<svg width="116" height="21" viewBox="0 0 116 21" fill="none" xmlns="http://www.w3.org/2000/svg">
<path d="M18.8958 0.608032H1.10417C0.494167 0.608032 0 1.1022 0 1.7122V19.5047C0 20.1139 0.494167 20.608 1.10417 20.608H10.6833V12.863H8.07667V9.8447H10.6833V7.61887C10.6833 5.03553 12.2608 3.62887 14.5658 3.62887C15.67 3.62887 16.6183 3.71137 16.895 3.74803V6.44803L15.2967 6.44887C14.0433 6.44887 13.8008 7.0447 13.8008 7.91803V9.84553H16.79L16.4008 12.8639H13.8008V20.608H18.8975C19.5058 20.608 20 20.1139 20 19.5039V1.7122C20 1.1022 19.5058 0.608032 18.8958 0.608032Z" fill="#584D62"/>
<path d="M68 4.40549C67.2642 4.73216 66.4733 4.95216 65.6433 5.05132C66.4908 4.54382 67.1417 3.73966 67.4475 2.78132C66.655 3.25132 65.7767 3.59299 64.8417 3.77716C64.0942 2.97966 63.0267 2.48132 61.8467 2.48132C59.1975 2.48132 57.2508 4.95299 57.8492 7.51882C54.44 7.34799 51.4167 5.71466 49.3925 3.23216C48.3175 5.07632 48.835 7.48882 50.6617 8.71049C49.99 8.68882 49.3567 8.50466 48.8042 8.19716C48.7592 10.098 50.1217 11.8763 52.095 12.2722C51.5175 12.4288 50.885 12.4655 50.2417 12.3422C50.7633 13.9722 52.2783 15.158 54.075 15.1913C52.35 16.5438 50.1767 17.148 48 16.8913C49.8158 18.0555 51.9733 18.7347 54.29 18.7347C61.9083 18.7347 66.2125 12.3005 65.9525 6.52966C66.7542 5.95049 67.45 5.22799 68 4.40549Z" fill="#584D62"/>
<path fill-rule="evenodd" clip-rule="evenodd" d="M106 0.608032C103.284 0.608032 102.944 0.619699 101.878 0.668032C98.2458 0.834699 96.2275 2.8497 96.0608 6.4847C96.0117 7.5522 96 7.8922 96 10.608C96 13.3239 96.0117 13.6647 96.06 14.7314C96.2267 18.363 98.2417 20.3814 101.877 20.548C102.944 20.5964 103.284 20.608 106 20.608C108.716 20.608 109.057 20.5964 110.123 20.548C113.752 20.3814 115.775 18.3664 115.939 14.7314C115.988 13.6647 116 13.3239 116 10.608C116 7.8922 115.988 7.5522 115.94 6.48553C115.777 2.8572 113.759 0.835532 110.124 0.668866C109.057 0.619699 108.716 0.608032 106 0.608032ZM106 2.41053C108.67 2.41053 108.987 2.42053 110.042 2.46887C112.752 2.5922 114.017 3.87803 114.141 6.56803C114.189 7.6222 114.198 7.93887 114.198 10.6089C114.198 13.2797 114.188 13.5955 114.141 14.6497C114.017 17.3372 112.754 18.6255 110.042 18.7489C108.987 18.7972 108.672 18.8072 106 18.8072C103.33 18.8072 103.013 18.7972 101.959 18.7489C99.2425 18.6247 97.9833 17.333 97.86 14.6489C97.8117 13.5947 97.8017 13.2789 97.8017 10.608C97.8017 7.93803 97.8125 7.6222 97.86 6.5672C97.9842 3.87803 99.2467 2.59137 101.959 2.46803C103.014 2.42053 103.33 2.41053 106 2.41053ZM100.865 10.608C100.865 7.7722 103.164 5.47303 106 5.47303C108.836 5.47303 111.135 7.7722 111.135 10.608C111.135 13.4447 108.836 15.7439 106 15.7439C103.164 15.7439 100.865 13.4439 100.865 10.608ZM106 13.9414C104.159 13.9414 102.667 12.4497 102.667 10.608C102.667 8.7672 104.159 7.2747 106 7.2747C107.841 7.2747 109.333 8.7672 109.333 10.608C109.333 12.4497 107.841 13.9414 106 13.9414ZM110.137 5.27053C110.137 4.60803 110.675 4.07053 111.338 4.07053C112.001 4.07053 112.538 4.60803 112.538 5.27053C112.538 5.93303 112.001 6.47053 111.338 6.47053C110.675 6.47053 110.137 5.93303 110.137 5.27053Z" fill="#584D62"/>
</svg>
